<svg width="233" height="128" viewBox="0 0 233 128" fill="none" xmlns="http://www.w3.org/2000/svg">
<rect width="213" height="128" rx="50" fill="black"/>
<path d="M40.9688 64.4375C40.9688 60.8333 41.4896 57.3542 42.5312 54C43.5729 50.6458 45.0208 47.4688 46.875 44.4688C48.7292 41.4688 50.9375 38.6771 53.5 36.0938C56.0833 33.4896 58.8958 31.125 61.9375 29L66.2188 35.5938C63.6562 37.6146 61.3333 39.7188 59.25 41.9062C57.1667 44.0729 55.3854 46.3542 53.9062 48.75C52.4479 51.1458 51.3125 53.6458 50.5 56.25C49.7083 58.8542 49.3125 61.5833 49.3125 64.4375C49.3125 67.2917 49.6146 70 50.2188 72.5625C50.8438 75.125 51.7812 77.5729 53.0312 79.9062C54.2812 82.2396 55.8542 84.4792 57.75 86.625C59.6458 88.75 61.875 90.8229 64.4375 92.8438L60.1562 99.4375C57.1146 97.3125 54.3958 94.9688 52 92.4062C49.625 89.8646 47.6146 87.125 45.9688 84.1875C44.3438 81.2292 43.1042 78.1042 42.25 74.8125C41.3958 71.5 40.9688 68.0417 40.9688 64.4375ZM99.4062 64.4375C99.4062 68.0417 98.9792 71.5 98.125 74.8125C97.2708 78.1042 96.0208 81.2292 94.375 84.1875C92.75 87.125 90.7396 89.8646 88.3438 92.4062C85.9688 94.9688 83.2604 97.3125 80.2188 99.4375L75.9375 92.8438C78.5 90.8229 80.7292 88.75 82.625 86.625C84.5208 84.4792 86.0938 82.2396 87.3438 79.9062C88.5938 77.5729 89.5208 75.125 90.125 72.5625C90.75 70 91.0625 67.2917 91.0625 64.4375C91.0625 61.5833 90.6562 58.8542 89.8438 56.25C89.0521 53.6458 87.9167 51.1458 86.4375 48.75C84.9792 46.3542 83.2083 44.0729 81.125 41.9062C79.0417 39.7188 76.7188 37.6146 74.1562 35.5938L78.4375 29C81.4792 31.125 84.2812 33.4896 86.8438 36.0938C89.4271 38.6771 91.6458 41.4688 93.5 44.4688C95.3542 47.4688 96.8021 50.6458 97.8438 54C98.8854 57.3542 99.4062 60.8333 99.4062 64.4375ZM111.656 60.6875H140.312V67.625H111.656V60.6875Z" fill="#00FF55"/>
<path d="M153.5 56.2812L160.156 47.125L149.406 43.5938L151.594 36.8125L162.375 40.3438L162.312 29H169.531L169.469 40.3438L180.281 36.8438L182.5 43.625L171.75 47.125L178.312 56.2812L172.562 60.4688L165.938 51.2812L159.25 60.4375L153.5 56.2812Z" fill="#CC00FF"/>
</svg>
