<svg width="669" height="106" viewBox="0 0 669 106" fill="none" xmlns="http://www.w3.org/2000/svg">
<path d="M46.952 45.472C45.4587 45.472 44.328 45.1947 43.56 44.64C42.792 44.0853 42.408 43.3387 42.408 42.4C42.408 41.7173 42.6427 41.12 43.112 40.608C43.5387 40.0533 44.0507 39.6267 44.648 39.328C45.2453 38.9867 45.7147 38.816 46.056 38.816C46.5253 38.816 46.8453 38.9227 47.016 39.136C47.144 39.3067 47.208 39.4987 47.208 39.712C47.208 40.0533 47.016 40.3307 46.632 40.544C46.2053 40.7573 45.864 40.864 45.608 40.864C45.3093 40.864 45.0533 40.7787 44.84 40.608C44.584 40.3947 44.456 40.288 44.456 40.288C44.2427 40.3307 43.944 40.5653 43.56 40.992C43.176 41.4187 42.984 41.888 42.984 42.4C42.984 42.912 43.2613 43.4027 43.816 43.872C44.3707 44.3413 45.2667 44.576 46.504 44.576C47.784 44.576 49 44.1493 50.152 43.296C51.3467 42.4427 52.328 41.3547 53.096 40.032C53.864 38.7093 54.248 37.3653 54.248 36C54.248 35.5307 54.248 34.912 54.248 34.144C54.248 33.3333 54.248 32.672 54.248 32.16C54.248 31.52 54.3547 30.7947 54.568 29.984C54.7813 29.1307 55.016 28.3413 55.272 27.616C55.5707 26.8907 55.8053 26.4427 55.976 26.272C56.3173 25.9733 56.5733 25.888 56.744 26.016C56.9147 26.144 56.9573 26.272 56.872 26.4C56.8293 26.4427 56.552 26.784 56.04 27.424C55.528 28.0213 54.888 28.768 54.12 29.664C53.352 30.56 52.584 31.456 51.816 32.352C51.048 33.248 50.3653 34.0373 49.768 34.72C49.2133 35.4027 48.8933 35.808 48.808 35.936C48.5947 36.2347 48.4027 36.2987 48.232 36.128C48.0613 35.9573 48.104 35.744 48.36 35.488C48.8293 34.8907 49.4053 34.1867 50.088 33.376C50.8133 32.5227 51.5387 31.6907 52.264 30.88C52.9893 30.0693 53.608 29.3867 54.12 28.832C54.6747 28.2347 54.9733 27.8933 55.016 27.808C55.144 27.6373 55.2507 27.3387 55.336 26.912C55.464 26.4853 55.6133 26.08 55.784 25.696C55.9973 25.312 56.2533 25.12 56.552 25.12C57.2773 25.12 57.64 25.376 57.64 25.888C57.64 26.272 57.3413 26.7413 56.744 27.296C56.1893 27.8507 55.8693 28.2987 55.784 28.64C55.656 29.152 55.656 29.8773 55.784 30.816C55.9547 31.712 56.1253 32.736 56.296 33.888C56.5093 35.04 56.616 36.256 56.616 37.536C56.616 39.2427 56.2747 40.6293 55.592 41.696C54.9093 42.72 54.056 43.5093 53.032 44.064C52.008 44.6187 50.9413 44.9813 49.832 45.152C48.7653 45.3653 47.8053 45.472 46.952 45.472ZM56.808 41.056C55.6987 41.056 54.9733 40.8427 54.632 40.416C54.3333 39.9893 54.2267 39.4987 54.312 38.944C54.44 38.3467 54.5893 37.8133 54.76 37.344L55.4 37.408C55.272 37.8347 55.144 38.2827 55.016 38.752C54.9307 39.2213 54.9947 39.6267 55.208 39.968C55.4213 40.3093 55.976 40.48 56.872 40.48C57.512 40.48 58.2373 40.1813 59.048 39.584C59.8587 38.9867 60.648 38.2613 61.416 37.408C62.2267 36.5547 62.9093 35.7227 63.464 34.912L64.04 35.36C63.4853 36.0427 62.8027 36.832 61.992 37.728C61.224 38.624 60.392 39.4133 59.496 40.096C58.6 40.736 57.704 41.056 56.808 41.056ZM84.0455 5.216C84.5575 5.30133 85.0908 5.36533 85.6455 5.408C86.2428 5.408 86.8402 5.344 87.4375 5.216C87.3948 5.25867 87.0322 5.77067 86.3495 6.752C85.6668 7.69067 84.7282 8.97067 83.5335 10.592C82.3815 12.1707 81.0802 13.9627 79.6295 15.968C78.2215 17.9733 76.7495 20.0427 75.2135 22.176C73.7202 24.2667 72.2482 26.3147 70.7975 28.32C69.3895 30.2827 68.0882 32.0747 66.8935 33.696C65.7415 35.3173 64.8242 36.6187 64.1415 37.6C63.4588 38.5813 63.0962 39.0933 63.0535 39.136C63.0535 39.136 63.0748 39.1787 63.1175 39.264C63.1602 39.3067 63.1815 39.3493 63.1815 39.392C64.2482 38.24 65.4002 36.9813 66.6375 35.616C67.8748 34.2507 69.1335 32.9707 70.4135 31.776C71.6935 30.5387 72.9522 29.536 74.1895 28.768C75.4695 28 76.6428 27.616 77.7095 27.616C79.0748 27.616 79.9495 27.936 80.3335 28.576C80.7602 29.1733 80.9735 29.7067 80.9735 30.176C80.9735 31.072 80.6748 32.0533 80.0775 33.12C79.4802 34.1867 78.7335 35.2533 77.8375 36.32C76.9842 37.3867 76.1095 38.3893 75.2135 39.328C74.3602 40.224 73.6348 41.0133 73.0375 41.696C72.4402 42.3787 72.1415 42.8693 72.1415 43.168C72.1415 43.5093 72.3975 43.7227 72.9095 43.808C73.4642 43.8507 73.9122 43.872 74.2535 43.872C75.2348 43.872 76.3015 43.5093 77.4535 42.784C78.6055 42.0587 79.7362 41.1627 80.8455 40.096C81.9548 39.0293 82.9575 37.984 83.8535 36.96C84.7495 35.936 85.4322 35.1253 85.9015 34.528L86.4135 34.912C85.9868 35.424 85.3468 36.2133 84.4935 37.28C83.6402 38.304 82.6162 39.392 81.4215 40.544C80.2695 41.6533 79.0108 42.6133 77.6455 43.424C76.2802 44.192 74.8508 44.576 73.3575 44.576C72.8028 44.576 72.1628 44.4267 71.4375 44.128C70.7122 43.872 70.3495 43.296 70.3495 42.4C70.3495 41.6747 70.6268 40.8427 71.1815 39.904C71.7788 38.9227 72.5042 37.92 73.3575 36.896C74.2108 35.8293 75.0642 34.8053 75.9175 33.824C76.8135 32.8427 77.5388 31.9467 78.0935 31.136C78.6908 30.2827 78.9895 29.6 78.9895 29.088C78.9895 28.5333 78.5842 28.256 77.7735 28.256C76.7495 28.256 75.5122 28.7467 74.0615 29.728C72.6535 30.6667 71.1602 31.9253 69.5815 33.504C68.0028 35.0827 66.4242 36.7893 64.8455 38.624C63.3095 40.4587 61.8802 42.272 60.5575 44.064C60.0028 43.9787 59.3842 43.936 58.7015 43.936C58.0188 43.936 57.3788 44.0213 56.7815 44.192C56.7815 44.192 57.1655 43.6587 57.9335 42.592C58.7015 41.4827 59.7468 40.0107 61.0695 38.176C62.3495 36.2987 63.8002 34.208 65.4215 31.904C67.0428 29.5573 68.7068 27.168 70.4135 24.736C72.1202 22.2613 73.7842 19.872 75.4055 17.568C77.0268 15.2213 78.4775 13.1307 79.7575 11.296C81.0802 9.41867 82.1255 7.94667 82.8935 6.88C83.6615 5.77067 84.0455 5.216 84.0455 5.216ZM84.47 44.576C83.8727 44.576 83.2113 44.4053 82.486 44.064C81.718 43.7653 81.334 43.2533 81.334 42.528C81.334 41.632 81.7393 40.5013 82.55 39.136C83.3607 37.7707 84.3633 36.3627 85.558 34.912C86.71 33.4613 87.8407 32.096 88.95 30.816C90.0593 29.536 90.8913 28.5333 91.446 27.808C91.9153 27.8507 92.47 27.872 93.11 27.872C93.7927 27.872 94.39 27.8507 94.902 27.808C94.3047 28.5333 93.5153 29.4507 92.534 30.56C91.5953 31.6693 90.5927 32.864 89.526 34.144C88.502 35.3813 87.4993 36.5973 86.518 37.792C85.5793 38.9867 84.8113 40.0533 84.214 40.992C83.6167 41.9307 83.318 42.6133 83.318 43.04C83.318 43.3387 83.446 43.552 83.702 43.68C83.958 43.808 84.3847 43.872 84.982 43.872C86.006 43.872 87.1367 43.488 88.374 42.72C89.654 41.9093 90.8913 40.9493 92.086 39.84C93.2807 38.7307 94.3473 37.6853 95.286 36.704C96.2247 35.68 96.886 34.9333 97.27 34.464L97.782 34.912C97.398 35.3387 96.7367 36.0853 95.798 37.152C94.902 38.176 93.814 39.264 92.534 40.416C91.2967 41.568 89.974 42.5493 88.566 43.36C87.2007 44.1707 85.8353 44.576 84.47 44.576ZM97.27 22.944C96.758 22.944 96.374 22.7947 96.118 22.496C95.862 22.1547 95.734 21.7707 95.734 21.344C95.734 20.8747 95.99 20.384 96.502 19.872C97.014 19.36 97.5473 19.104 98.102 19.104C98.6993 19.104 99.126 19.2747 99.382 19.616C99.638 19.9147 99.766 20.2133 99.766 20.512C99.766 21.152 99.51 21.728 98.998 22.24C98.486 22.7093 97.91 22.944 97.27 22.944ZM103.524 27.808C103.95 27.8507 104.526 27.9147 105.252 28C106.02 28.0427 106.745 28 107.428 27.872C106.745 28.5973 105.87 29.5147 104.804 30.624C103.737 31.6907 102.585 32.8213 101.348 34.016C100.153 35.2107 99.0222 36.384 97.9555 37.536C96.9315 38.688 96.0782 39.712 95.3955 40.608C94.7128 41.504 94.3715 42.1867 94.3715 42.656C94.3715 43.0827 94.4995 43.4027 94.7555 43.616C95.0115 43.8293 95.4595 43.936 96.0995 43.936C96.7822 43.936 97.7208 43.68 98.9155 43.168C100.153 42.656 101.476 41.9733 102.884 41.12C104.292 40.2667 105.657 39.3067 106.98 38.24C108.302 37.1307 109.412 36 110.308 34.848C111.246 33.6533 111.801 32.48 111.972 31.328C112.1 30.56 112.164 29.7707 112.164 28.96C112.164 28.4907 112.356 28.064 112.74 27.68C113.166 27.2533 113.593 27.04 114.02 27.04C114.958 27.04 115.428 27.5947 115.428 28.704C115.428 29.6853 114.937 30.8587 113.956 32.224C113.017 33.5893 111.758 34.9973 110.18 36.448C108.644 37.856 106.958 39.1787 105.124 40.416C103.332 41.6533 101.561 42.656 99.8115 43.424C98.1048 44.192 96.6115 44.576 95.3315 44.576C94.5635 44.576 93.9448 44.384 93.4755 44C92.9635 43.616 92.7075 43.0613 92.7075 42.336C92.7075 41.5253 93.0488 40.544 93.7315 39.392C94.4142 38.24 95.2888 37.024 96.3555 35.744C97.3795 34.464 98.4035 33.248 99.4275 32.096C100.494 30.944 101.412 29.984 102.18 29.216C102.948 28.448 103.396 27.9787 103.524 27.808ZM109.796 35.936L110.308 36.32C109.881 36.704 109.518 37.1093 109.22 37.536C108.964 37.92 108.836 38.3467 108.836 38.816C108.836 39.4987 109.241 39.84 110.052 39.84C110.82 39.84 111.63 39.52 112.484 38.88C113.38 38.24 114.254 37.4933 115.108 36.64C115.961 35.7867 116.686 35.0827 117.284 34.528L117.796 34.912C117.198 35.552 116.452 36.32 115.556 37.216C114.702 38.0693 113.785 38.816 112.804 39.456C111.822 40.096 110.905 40.416 110.052 40.416C108.814 40.416 108.196 39.904 108.196 38.88C108.196 38.2827 108.302 37.8133 108.516 37.472C108.729 37.088 109.156 36.576 109.796 35.936ZM131.202 32.8C131.031 33.1413 130.775 33.44 130.434 33.696C130.135 33.952 129.901 34.1227 129.73 34.208C129.602 34.2507 129.645 34.1227 129.858 33.824C130.626 32.8853 131.117 32.0107 131.33 31.2C131.586 30.3893 131.586 29.7493 131.33 29.28C131.117 28.768 130.69 28.512 130.05 28.512C129.197 28.512 128.194 28.8533 127.042 29.536C125.89 30.2187 124.695 31.1147 123.458 32.224C122.263 33.3333 121.133 34.528 120.066 35.808C119.042 37.0453 118.21 38.2613 117.57 39.456C116.93 40.608 116.61 41.6107 116.61 42.464C116.61 43.104 116.738 43.5093 116.994 43.68C117.25 43.8507 117.506 43.936 117.762 43.936C118.743 43.936 119.874 43.488 121.154 42.592C122.477 41.6533 123.821 40.48 125.186 39.072C126.551 37.664 127.853 36.2347 129.09 34.784C130.327 33.2907 131.394 31.9467 132.29 30.752C133.229 29.5573 133.869 28.7467 134.21 28.32C134.679 28.4907 135.234 28.5547 135.874 28.512C136.557 28.4693 137.133 28.4267 137.602 28.384C137.517 28.512 137.069 29.0453 136.258 29.984C135.49 30.9227 134.551 32.0533 133.442 33.376C132.375 34.656 131.287 35.9787 130.178 37.344C129.111 38.7093 128.215 39.904 127.49 40.928C126.765 41.952 126.402 42.6347 126.402 42.976C126.402 43.4027 126.487 43.68 126.658 43.808C126.871 43.8933 127.191 43.936 127.618 43.936C128.13 43.8933 128.877 43.6587 129.858 43.232C130.839 42.7627 132.098 41.8667 133.634 40.544C135.17 39.2213 137.026 37.2587 139.202 34.656C139.202 34.656 139.287 34.72 139.458 34.848C139.671 34.976 139.778 35.04 139.778 35.04C137.218 38.0267 134.85 40.3733 132.674 42.08C130.498 43.744 128.514 44.576 126.722 44.576C125.783 44.576 125.143 44.4267 124.802 44.128C124.503 43.8293 124.354 43.4027 124.354 42.848C124.354 42.4213 124.525 41.9093 124.866 41.312C125.25 40.672 125.677 40.0533 126.146 39.456C126.615 38.8587 126.999 38.3893 127.298 38.048C127.298 38.048 127.255 38.0267 127.17 37.984C127.085 37.9413 127.042 37.92 127.042 37.92C126.061 39.1147 125.015 40.224 123.906 41.248C122.797 42.272 121.687 43.0827 120.578 43.68C119.511 44.2773 118.466 44.576 117.442 44.576C116.375 44.576 115.629 44.32 115.202 43.808C114.775 43.2533 114.562 42.4213 114.562 41.312C114.562 40.2453 114.903 38.9653 115.586 37.472C116.269 35.936 117.25 34.4427 118.53 32.992C119.81 31.4987 121.346 30.2613 123.138 29.28C124.973 28.2987 127.021 27.808 129.282 27.808C130.391 27.808 131.159 28.0213 131.586 28.448C132.013 28.832 132.205 29.3013 132.162 29.856C132.119 30.4107 131.991 30.9653 131.778 31.52C131.565 32.0747 131.373 32.5013 131.202 32.8ZM152.692 44.576C150.43 44.576 149.3 43.9147 149.3 42.592C149.3 41.7387 149.577 40.8213 150.132 39.84C150.729 38.8587 151.454 37.8773 152.308 36.896C153.161 35.872 154.014 34.8693 154.868 33.888C155.764 32.9067 156.489 32.0107 157.044 31.2C157.641 30.3467 157.94 29.6213 157.94 29.024C157.94 28.8107 157.833 28.64 157.62 28.512C157.449 28.3413 157.193 28.256 156.852 28.256C156.34 28.256 155.614 28.512 154.676 29.024C153.78 29.536 152.628 30.4107 151.22 31.648C149.854 32.8427 148.233 34.464 146.356 36.512C144.478 38.5173 142.324 41.0347 139.892 44.064C139.508 43.9787 138.931 43.936 138.163 43.936C137.395 43.936 136.734 44.0213 136.179 44.192C137.417 42.4 138.633 40.6507 139.828 38.944C141.022 37.2373 142.11 35.68 143.092 34.272C144.116 32.864 144.926 31.712 145.524 30.816C146.121 29.8773 146.42 29.3013 146.42 29.088C146.42 28.704 146.228 28.512 145.844 28.512C145.417 28.512 144.884 28.8533 144.244 29.536C143.604 30.176 142.9 31.008 142.132 32.032C141.364 33.0133 140.574 34.016 139.764 35.04L139.188 34.656C140.041 33.6747 140.873 32.6507 141.684 31.584C142.494 30.5173 143.326 29.6 144.18 28.832C145.033 28.064 145.929 27.68 146.868 27.68C147.337 27.68 147.764 27.808 148.148 28.064C148.574 28.2773 148.788 28.64 148.788 29.152C148.788 29.6213 148.596 30.1973 148.212 30.88C147.87 31.52 147.401 32.2667 146.804 33.12C146.206 33.9307 145.524 34.848 144.756 35.872C144.03 36.8533 143.262 37.92 142.452 39.072L142.516 39.456C144.777 36.9813 146.676 34.976 148.212 33.44C149.79 31.904 151.092 30.7307 152.116 29.92C153.182 29.0667 154.1 28.4907 154.868 28.192C155.678 27.8507 156.446 27.68 157.172 27.68C158.153 27.68 158.857 27.8933 159.284 28.32C159.71 28.704 159.924 29.2373 159.924 29.92C159.924 30.944 159.625 32.032 159.028 33.184C158.43 34.2933 157.684 35.4027 156.788 36.512C155.934 37.5787 155.06 38.5813 154.164 39.52C153.31 40.416 152.585 41.184 151.988 41.824C151.39 42.464 151.092 42.8907 151.092 43.104C151.092 43.36 151.156 43.552 151.284 43.68C151.454 43.808 151.86 43.872 152.5 43.872C154.078 43.872 155.572 43.3813 156.98 42.4C158.43 41.4187 159.817 40.224 161.14 38.816C162.462 37.3653 163.7 35.936 164.852 34.528L165.364 34.976C164.212 36.3413 162.953 37.7707 161.588 39.264C160.222 40.7573 158.793 42.016 157.3 43.04C155.806 44.064 154.27 44.576 152.692 44.576ZM162.702 45.472C161.209 45.472 160.078 45.1947 159.31 44.64C158.542 44.0853 158.158 43.3387 158.158 42.4C158.158 41.7173 158.393 41.12 158.862 40.608C159.289 40.0533 159.801 39.6267 160.398 39.328C160.995 38.9867 161.465 38.816 161.806 38.816C162.275 38.816 162.595 38.9227 162.766 39.136C162.894 39.3067 162.958 39.4987 162.958 39.712C162.958 40.0533 162.766 40.3307 162.382 40.544C161.955 40.7573 161.614 40.864 161.358 40.864C161.059 40.864 160.803 40.7787 160.59 40.608C160.334 40.3947 160.206 40.288 160.206 40.288C159.993 40.3307 159.694 40.5653 159.31 40.992C158.926 41.4187 158.734 41.888 158.734 42.4C158.734 42.912 159.011 43.4027 159.566 43.872C160.121 44.3413 161.017 44.576 162.254 44.576C163.534 44.576 164.75 44.1493 165.902 43.296C167.097 42.4427 168.078 41.3547 168.846 40.032C169.614 38.7093 169.998 37.3653 169.998 36C169.998 35.5307 169.998 34.912 169.998 34.144C169.998 33.3333 169.998 32.672 169.998 32.16C169.998 31.52 170.105 30.7947 170.318 29.984C170.531 29.1307 170.766 28.3413 171.022 27.616C171.321 26.8907 171.555 26.4427 171.726 26.272C172.067 25.9733 172.323 25.888 172.494 26.016C172.665 26.144 172.707 26.272 172.622 26.4C172.579 26.4427 172.302 26.784 171.79 27.424C171.278 28.0213 170.638 28.768 169.87 29.664C169.102 30.56 168.334 31.456 167.566 32.352C166.798 33.248 166.115 34.0373 165.518 34.72C164.963 35.4027 164.643 35.808 164.558 35.936C164.345 36.2347 164.153 36.2987 163.982 36.128C163.811 35.9573 163.854 35.744 164.11 35.488C164.579 34.8907 165.155 34.1867 165.838 33.376C166.563 32.5227 167.289 31.6907 168.014 30.88C168.739 30.0693 169.358 29.3867 169.87 28.832C170.425 28.2347 170.723 27.8933 170.766 27.808C170.894 27.6373 171.001 27.3387 171.086 26.912C171.214 26.4853 171.363 26.08 171.534 25.696C171.747 25.312 172.003 25.12 172.302 25.12C173.027 25.12 173.39 25.376 173.39 25.888C173.39 26.272 173.091 26.7413 172.494 27.296C171.939 27.8507 171.619 28.2987 171.534 28.64C171.406 29.152 171.406 29.8773 171.534 30.816C171.705 31.712 171.875 32.736 172.046 33.888C172.259 35.04 172.366 36.256 172.366 37.536C172.366 39.2427 172.025 40.6293 171.342 41.696C170.659 42.72 169.806 43.5093 168.782 44.064C167.758 44.6187 166.691 44.9813 165.582 45.152C164.515 45.3653 163.555 45.472 162.702 45.472ZM172.558 41.056C171.449 41.056 170.723 40.8427 170.382 40.416C170.083 39.9893 169.977 39.4987 170.062 38.944C170.19 38.3467 170.339 37.8133 170.51 37.344L171.15 37.408C171.022 37.8347 170.894 38.2827 170.766 38.752C170.681 39.2213 170.745 39.6267 170.958 39.968C171.171 40.3093 171.726 40.48 172.622 40.48C173.262 40.48 173.987 40.1813 174.798 39.584C175.609 38.9867 176.398 38.2613 177.166 37.408C177.977 36.5547 178.659 35.7227 179.214 34.912L179.79 35.36C179.235 36.0427 178.553 36.832 177.742 37.728C176.974 38.624 176.142 39.4133 175.246 40.096C174.35 40.736 173.454 41.056 172.558 41.056ZM199.796 5.216C200.308 5.30133 200.841 5.36533 201.396 5.408C201.993 5.408 202.59 5.344 203.188 5.216C203.145 5.25867 202.782 5.77067 202.1 6.752C201.417 7.69067 200.478 8.97067 199.284 10.592C198.132 12.1707 196.83 13.9627 195.38 15.968C193.972 17.9733 192.5 20.0427 190.964 22.176C189.47 24.2667 187.998 26.3147 186.548 28.32C185.14 30.2827 183.838 32.0747 182.644 33.696C181.492 35.3173 180.574 36.6187 179.892 37.6C179.209 38.5813 178.846 39.0933 178.803 39.136C178.803 39.136 178.825 39.1787 178.867 39.264C178.91 39.3067 178.931 39.3493 178.931 39.392C179.998 38.24 181.15 36.9813 182.388 35.616C183.625 34.2507 184.884 32.9707 186.164 31.776C187.444 30.5387 188.702 29.536 189.94 28.768C191.22 28 192.393 27.616 193.46 27.616C194.825 27.616 195.7 27.936 196.083 28.576C196.51 29.1733 196.724 29.7067 196.724 30.176C196.724 31.072 196.425 32.0533 195.828 33.12C195.23 34.1867 194.484 35.2533 193.588 36.32C192.734 37.3867 191.86 38.3893 190.964 39.328C190.11 40.224 189.385 41.0133 188.788 41.696C188.19 42.3787 187.892 42.8693 187.892 43.168C187.892 43.5093 188.148 43.7227 188.66 43.808C189.214 43.8507 189.662 43.872 190.004 43.872C190.985 43.872 192.052 43.5093 193.204 42.784C194.356 42.0587 195.486 41.1627 196.596 40.096C197.705 39.0293 198.708 37.984 199.604 36.96C200.5 35.936 201.182 35.1253 201.652 34.528L202.164 34.912C201.737 35.424 201.097 36.2133 200.244 37.28C199.39 38.304 198.366 39.392 197.172 40.544C196.02 41.6533 194.761 42.6133 193.396 43.424C192.03 44.192 190.601 44.576 189.108 44.576C188.553 44.576 187.913 44.4267 187.188 44.128C186.462 43.872 186.1 43.296 186.1 42.4C186.1 41.6747 186.377 40.8427 186.932 39.904C187.529 38.9227 188.254 37.92 189.108 36.896C189.961 35.8293 190.814 34.8053 191.668 33.824C192.564 32.8427 193.289 31.9467 193.844 31.136C194.441 30.2827 194.74 29.6 194.74 29.088C194.74 28.5333 194.334 28.256 193.524 28.256C192.5 28.256 191.262 28.7467 189.812 29.728C188.404 30.6667 186.91 31.9253 185.332 33.504C183.753 35.0827 182.174 36.7893 180.596 38.624C179.06 40.4587 177.63 42.272 176.307 44.064C175.753 43.9787 175.134 43.936 174.451 43.936C173.769 43.936 173.129 44.0213 172.531 44.192C172.531 44.192 172.915 43.6587 173.683 42.592C174.451 41.4827 175.497 40.0107 176.819 38.176C178.099 36.2987 179.55 34.208 181.172 31.904C182.793 29.5573 184.457 27.168 186.164 24.736C187.87 22.2613 189.534 19.872 191.156 17.568C192.777 15.2213 194.228 13.1307 195.508 11.296C196.83 9.41867 197.876 7.94667 198.644 6.88C199.412 5.77067 199.796 5.216 199.796 5.216ZM227.088 27.744C227.685 27.9147 228.304 28 228.944 28C229.584 27.9573 230.245 27.9147 230.928 27.872C229.776 28.9813 228.474 30.304 227.024 31.84C225.616 33.3333 224.25 34.848 222.928 36.384C221.648 37.8773 220.581 39.2213 219.727 40.416C218.874 41.568 218.447 42.3573 218.447 42.784C218.447 43.0827 218.554 43.36 218.767 43.616C218.981 43.8293 219.343 43.936 219.855 43.936C221.349 43.936 222.885 43.488 224.464 42.592C226.085 41.696 227.642 40.5653 229.135 39.2C230.672 37.792 232.101 36.3413 233.424 34.848C234.746 33.312 235.898 31.9253 236.88 30.688C237.904 29.408 238.65 28.4693 239.12 27.872C239.461 27.9573 240.016 28 240.784 28C241.594 28 242.149 27.9787 242.448 27.936C238.053 33.2267 234.192 38.0907 230.864 42.528C227.578 46.9227 224.613 50.6987 221.968 53.856C219.322 57.056 216.805 59.5307 214.415 61.28C211.983 63.0293 209.445 63.904 206.799 63.904C205.178 63.904 204.367 63.264 204.367 61.984C204.367 61.0453 204.965 60.064 206.159 59.04C207.311 58.016 208.869 56.9493 210.831 55.84C212.794 54.7733 214.97 53.7067 217.359 52.64C219.749 51.5733 222.181 50.5493 224.656 49.568C227.898 48.288 230.565 46.88 232.656 45.344C234.789 43.8507 236.645 42.208 238.224 40.416C239.845 38.624 241.488 36.6613 243.152 34.528L243.664 34.848C241.957 37.024 240.272 39.0293 238.608 40.864C236.944 42.656 235.045 44.32 232.912 45.856C230.778 47.392 228.09 48.8213 224.848 50.144C222.416 51.1253 220.047 52.128 217.743 53.152C215.397 54.2187 213.285 55.2427 211.407 56.224C209.487 57.248 207.973 58.2507 206.863 59.232C205.711 60.2133 205.135 61.1307 205.135 61.984C205.135 62.496 205.306 62.816 205.647 62.944C205.989 63.1147 206.437 63.2 206.991 63.2C208.314 63.2 209.743 62.688 211.28 61.664C212.773 60.64 214.351 59.2533 216.015 57.504C217.679 55.7547 219.365 53.7707 221.072 51.552C222.821 49.376 224.592 47.1147 226.384 44.768C228.176 42.4213 229.989 40.1387 231.824 37.92L231.568 37.792C231.482 37.92 231.184 38.24 230.672 38.752C230.16 39.264 229.498 39.84 228.688 40.48C227.877 41.12 226.96 41.76 225.936 42.4C224.912 43.04 223.824 43.5733 222.672 44C221.562 44.384 220.431 44.576 219.279 44.576C218.469 44.576 217.85 44.384 217.423 44C216.954 43.6587 216.719 43.168 216.719 42.528C216.719 41.504 217.061 40.352 217.743 39.072C218.426 37.7493 219.322 36.4053 220.431 35.04C221.498 33.6747 222.629 32.352 223.824 31.072C225.018 29.792 226.106 28.6827 227.088 27.744ZM257.077 32.8C256.906 33.1413 256.65 33.44 256.309 33.696C256.01 33.952 255.776 34.1227 255.605 34.208C255.477 34.2507 255.52 34.1227 255.733 33.824C256.501 32.8853 256.992 32.0107 257.205 31.2C257.461 30.3893 257.461 29.7493 257.205 29.28C256.992 28.768 256.565 28.512 255.925 28.512C255.072 28.512 254.069 28.8533 252.917 29.536C251.765 30.2187 250.57 31.1147 249.333 32.224C248.138 33.3333 247.008 34.528 245.941 35.808C244.917 37.0453 244.085 38.2613 243.445 39.456C242.805 40.608 242.485 41.6107 242.485 42.464C242.485 43.104 242.613 43.5093 242.869 43.68C243.125 43.8507 243.381 43.936 243.637 43.936C244.618 43.936 245.749 43.488 247.029 42.592C248.352 41.6533 249.696 40.48 251.061 39.072C252.426 37.664 253.728 36.2347 254.965 34.784C256.202 33.2907 257.269 31.9467 258.165 30.752C259.104 29.5573 259.744 28.7467 260.085 28.32C260.554 28.4907 261.109 28.5547 261.749 28.512C262.432 28.4693 263.008 28.4267 263.477 28.384C263.392 28.512 262.944 29.0453 262.133 29.984C261.365 30.9227 260.426 32.0533 259.317 33.376C258.25 34.656 257.162 35.9787 256.053 37.344C254.986 38.7093 254.09 39.904 253.365 40.928C252.64 41.952 252.277 42.6347 252.277 42.976C252.277 43.4027 252.362 43.68 252.533 43.808C252.746 43.8933 253.066 43.936 253.493 43.936C254.005 43.8933 254.752 43.6587 255.733 43.232C256.714 42.7627 257.973 41.8667 259.509 40.544C261.045 39.2213 262.901 37.2587 265.077 34.656C265.077 34.656 265.162 34.72 265.333 34.848C265.546 34.976 265.653 35.04 265.653 35.04C263.093 38.0267 260.725 40.3733 258.549 42.08C256.373 43.744 254.389 44.576 252.597 44.576C251.658 44.576 251.018 44.4267 250.677 44.128C250.378 43.8293 250.229 43.4027 250.229 42.848C250.229 42.4213 250.4 41.9093 250.741 41.312C251.125 40.672 251.552 40.0533 252.021 39.456C252.49 38.8587 252.874 38.3893 253.173 38.048C253.173 38.048 253.13 38.0267 253.045 37.984C252.96 37.9413 252.917 37.92 252.917 37.92C251.936 39.1147 250.89 40.224 249.781 41.248C248.672 42.272 247.562 43.0827 246.453 43.68C245.386 44.2773 244.341 44.576 243.317 44.576C242.25 44.576 241.504 44.32 241.077 43.808C240.65 43.2533 240.437 42.4213 240.437 41.312C240.437 40.2453 240.778 38.9653 241.461 37.472C242.144 35.936 243.125 34.4427 244.405 32.992C245.685 31.4987 247.221 30.2613 249.013 29.28C250.848 28.2987 252.896 27.808 255.157 27.808C256.266 27.808 257.034 28.0213 257.461 28.448C257.888 28.832 258.08 29.3013 258.037 29.856C257.994 30.4107 257.866 30.9653 257.653 31.52C257.44 32.0747 257.248 32.5013 257.077 32.8ZM265.639 44.576C264.444 44.576 263.612 44.2987 263.142 43.744C262.673 43.1467 262.438 42.2293 262.438 40.992C262.438 39.712 262.865 38.304 263.718 36.768C264.572 35.232 265.703 33.7813 267.111 32.416C268.561 31.008 270.183 29.856 271.975 28.96C273.767 28.064 275.601 27.616 277.479 27.616C278.503 27.616 279.207 27.8293 279.591 28.256C280.017 28.64 280.231 29.1093 280.231 29.664C280.273 30.2187 280.145 30.688 279.847 31.072C279.847 31.072 279.719 31.2 279.463 31.456C279.249 31.712 279.036 31.9893 278.823 32.288C278.609 32.544 278.503 32.672 278.503 32.672C279.356 31.1787 279.655 30.112 279.399 29.472C279.185 28.7893 278.588 28.448 277.607 28.448C276.881 28.448 275.964 28.7893 274.855 29.472C273.788 30.1547 272.636 31.0507 271.399 32.16C270.204 33.2693 269.073 34.464 268.007 35.744C266.94 37.024 266.065 38.2613 265.383 39.456C264.742 40.6507 264.422 41.6747 264.422 42.528C264.422 42.9547 264.572 43.2747 264.87 43.488C265.169 43.7013 265.553 43.808 266.023 43.808C266.663 43.808 267.409 43.552 268.263 43.04C269.116 42.528 269.991 41.888 270.887 41.12C271.783 40.352 272.615 39.584 273.383 38.816C274.151 38.048 274.769 37.3867 275.239 36.832C275.751 36.2773 276.028 35.9573 276.071 35.872C276.241 35.6587 276.732 34.9547 277.543 33.76C278.396 32.5653 279.463 31.072 280.743 29.28C282.023 27.488 283.388 25.5467 284.839 23.456C286.332 21.3227 287.804 19.2107 289.255 17.12C290.705 14.9867 292.049 13.0453 293.287 11.296C294.524 9.54666 295.527 8.11733 296.295 7.008C297.063 5.89867 297.489 5.30133 297.575 5.216C298.001 5.42933 298.407 5.57867 298.791 5.664C299.217 5.70666 299.857 5.68533 300.711 5.6C300.625 5.728 300.113 6.45333 299.175 7.776C298.236 9.056 297.02 10.7413 295.527 12.832C294.033 14.9227 292.412 17.2053 290.663 19.68C288.913 22.1547 287.143 24.6293 285.351 27.104C283.601 29.5787 281.98 31.8613 280.487 33.952C278.993 36.0427 277.777 37.7493 276.839 39.072C275.9 40.352 275.388 41.056 275.303 41.184C275.132 41.44 274.94 41.7813 274.727 42.208C274.556 42.592 274.47 42.9547 274.47 43.296C274.47 43.6373 274.641 43.808 274.983 43.808C276.263 43.808 277.521 43.4453 278.759 42.72C280.039 41.952 281.233 41.0347 282.343 39.968C283.495 38.9013 284.497 37.8773 285.351 36.896C286.204 35.872 286.887 35.0827 287.399 34.528L287.911 34.912C287.441 35.5093 286.737 36.3413 285.799 37.408C284.86 38.4747 283.772 39.5627 282.535 40.672C281.34 41.7387 280.081 42.656 278.759 43.424C277.436 44.192 276.156 44.576 274.919 44.576C274.108 44.576 273.489 44.4267 273.062 44.128C272.636 43.872 272.423 43.5093 272.423 43.04C272.423 42.4853 272.615 41.8667 272.999 41.184C273.425 40.5013 273.873 39.8613 274.343 39.264C274.812 38.624 275.153 38.176 275.367 37.92C275.367 37.92 275.324 37.92 275.239 37.92C275.196 37.8773 275.175 37.856 275.175 37.856C275.132 37.8987 274.791 38.2613 274.151 38.944C273.553 39.6267 272.764 40.416 271.783 41.312C270.844 42.1653 269.841 42.9333 268.775 43.616C267.708 44.256 266.663 44.576 265.639 44.576ZM301.327 32.8C301.156 33.1413 300.9 33.44 300.559 33.696C300.26 33.952 300.026 34.1227 299.855 34.208C299.727 34.2507 299.77 34.1227 299.983 33.824C300.751 32.8853 301.242 32.0107 301.455 31.2C301.711 30.3893 301.711 29.7493 301.455 29.28C301.242 28.768 300.815 28.512 300.175 28.512C299.322 28.512 298.319 28.8533 297.167 29.536C296.015 30.2187 294.82 31.1147 293.583 32.224C292.388 33.3333 291.258 34.528 290.191 35.808C289.167 37.0453 288.335 38.2613 287.695 39.456C287.055 40.608 286.735 41.6107 286.735 42.464C286.735 43.104 286.863 43.5093 287.119 43.68C287.375 43.8507 287.631 43.936 287.887 43.936C288.868 43.936 289.999 43.488 291.279 42.592C292.602 41.6533 293.946 40.48 295.311 39.072C296.676 37.664 297.978 36.2347 299.215 34.784C300.452 33.2907 301.519 31.9467 302.415 30.752C303.354 29.5573 303.994 28.7467 304.335 28.32C304.804 28.4907 305.359 28.5547 305.999 28.512C306.682 28.4693 307.258 28.4267 307.727 28.384C307.642 28.512 307.194 29.0453 306.383 29.984C305.615 30.9227 304.676 32.0533 303.567 33.376C302.5 34.656 301.412 35.9787 300.303 37.344C299.236 38.7093 298.34 39.904 297.615 40.928C296.89 41.952 296.527 42.6347 296.527 42.976C296.527 43.4027 296.612 43.68 296.783 43.808C296.996 43.8933 297.316 43.936 297.743 43.936C298.255 43.8933 299.002 43.6587 299.983 43.232C300.964 42.7627 302.223 41.8667 303.759 40.544C305.295 39.2213 307.151 37.2587 309.327 34.656C309.327 34.656 309.412 34.72 309.583 34.848C309.796 34.976 309.903 35.04 309.903 35.04C307.343 38.0267 304.975 40.3733 302.799 42.08C300.623 43.744 298.639 44.576 296.847 44.576C295.908 44.576 295.268 44.4267 294.927 44.128C294.628 43.8293 294.479 43.4027 294.479 42.848C294.479 42.4213 294.65 41.9093 294.991 41.312C295.375 40.672 295.802 40.0533 296.271 39.456C296.74 38.8587 297.124 38.3893 297.423 38.048C297.423 38.048 297.38 38.0267 297.295 37.984C297.21 37.9413 297.167 37.92 297.167 37.92C296.186 39.1147 295.14 40.224 294.031 41.248C292.922 42.272 291.812 43.0827 290.703 43.68C289.636 44.2773 288.591 44.576 287.567 44.576C286.5 44.576 285.754 44.32 285.327 43.808C284.9 43.2533 284.687 42.4213 284.687 41.312C284.687 40.2453 285.028 38.9653 285.711 37.472C286.394 35.936 287.375 34.4427 288.655 32.992C289.935 31.4987 291.471 30.2613 293.263 29.28C295.098 28.2987 297.146 27.808 299.407 27.808C300.516 27.808 301.284 28.0213 301.711 28.448C302.138 28.832 302.33 29.3013 302.287 29.856C302.244 30.4107 302.116 30.9653 301.903 31.52C301.69 32.0747 301.498 32.5013 301.327 32.8ZM315.649 27.808C316.075 27.8507 316.651 27.9147 317.377 28C318.145 28.0427 318.87 28 319.553 27.872C318.87 28.5973 317.995 29.5147 316.929 30.624C315.862 31.6907 314.71 32.8213 313.473 34.016C312.278 35.2107 311.147 36.384 310.081 37.536C309.056 38.688 308.203 39.712 307.52 40.608C306.838 41.504 306.496 42.1867 306.496 42.656C306.496 43.0827 306.624 43.4027 306.88 43.616C307.136 43.8293 307.584 43.936 308.224 43.936C308.907 43.936 309.846 43.68 311.041 43.168C312.278 42.656 313.601 41.9733 315.009 41.12C316.417 40.2667 317.782 39.3067 319.105 38.24C320.427 37.1307 321.537 36 322.433 34.848C323.371 33.6533 323.926 32.48 324.097 31.328C324.225 30.56 324.289 29.7707 324.289 28.96C324.289 28.4907 324.481 28.064 324.865 27.68C325.291 27.2533 325.718 27.04 326.145 27.04C327.083 27.04 327.553 27.5947 327.553 28.704C327.553 29.6853 327.062 30.8587 326.081 32.224C325.142 33.5893 323.883 34.9973 322.305 36.448C320.769 37.856 319.083 39.1787 317.249 40.416C315.457 41.6533 313.686 42.656 311.937 43.424C310.23 44.192 308.736 44.576 307.456 44.576C306.688 44.576 306.07 44.384 305.6 44C305.088 43.616 304.832 43.0613 304.832 42.336C304.832 41.5253 305.174 40.544 305.856 39.392C306.539 38.24 307.414 37.024 308.48 35.744C309.505 34.464 310.529 33.248 311.553 32.096C312.619 30.944 313.537 29.984 314.305 29.216C315.073 28.448 315.521 27.9787 315.649 27.808ZM321.921 35.936L322.433 36.32C322.006 36.704 321.643 37.1093 321.345 37.536C321.089 37.92 320.961 38.3467 320.961 38.816C320.961 39.4987 321.366 39.84 322.177 39.84C322.945 39.84 323.755 39.52 324.609 38.88C325.505 38.24 326.379 37.4933 327.233 36.64C328.086 35.7867 328.811 35.0827 329.409 34.528L329.921 34.912C329.323 35.552 328.577 36.32 327.681 37.216C326.827 38.0693 325.91 38.816 324.929 39.456C323.947 40.096 323.03 40.416 322.177 40.416C320.939 40.416 320.321 39.904 320.321 38.88C320.321 38.2827 320.427 37.8133 320.641 37.472C320.854 37.088 321.281 36.576 321.921 35.936Z" fill="white"/>
<path d="M7.96875 64.4375C7.96875 60.8333 8.48958 57.3542 9.53125 54C10.5729 50.6458 12.0208 47.4688 13.875 44.4688C15.7292 41.4688 17.9375 38.6771 20.5 36.0938C23.0833 33.4896 25.8958 31.125 28.9375 29L33.2188 35.5938C30.6562 37.6146 28.3333 39.7188 26.25 41.9062C24.1667 44.0729 22.3854 46.3542 20.9062 48.75C19.4479 51.1458 18.3125 53.6458 17.5 56.25C16.7083 58.8542 16.3125 61.5833 16.3125 64.4375C16.3125 67.2917 16.6146 70 17.2188 72.5625C17.8438 75.125 18.7812 77.5729 20.0312 79.9062C21.2812 82.2396 22.8542 84.4792 24.75 86.625C26.6458 88.75 28.875 90.8229 31.4375 92.8438L27.1562 99.4375C24.1146 97.3125 21.3958 94.9688 19 92.4062C16.625 89.8646 14.6146 87.125 12.9688 84.1875C11.3438 81.2292 10.1042 78.1042 9.25 74.8125C8.39583 71.5 7.96875 68.0417 7.96875 64.4375ZM366.594 64.4375C366.594 68.0417 366.167 71.5 365.312 74.8125C364.458 78.1042 363.208 81.2292 361.562 84.1875C359.938 87.125 357.927 89.8646 355.531 92.4062C353.156 94.9688 350.448 97.3125 347.406 99.4375L343.125 92.8438C345.688 90.8229 347.917 88.75 349.812 86.625C351.708 84.4792 353.281 82.2396 354.531 79.9062C355.781 77.5729 356.708 75.125 357.312 72.5625C357.938 70 358.25 67.2917 358.25 64.4375C358.25 61.5833 357.844 58.8542 357.031 56.25C356.24 53.6458 355.104 51.1458 353.625 48.75C352.167 46.3542 350.396 44.0729 348.312 41.9062C346.229 39.7188 343.906 37.6146 341.344 35.5938L345.625 29C348.667 31.125 351.469 33.4896 354.031 36.0938C356.615 38.6771 358.833 41.4688 360.688 44.4688C362.542 47.4688 363.99 50.6458 365.031 54C366.073 57.3542 366.594 60.8333 366.594 64.4375ZM378.844 60.6875H407.5V67.625H378.844V60.6875Z" fill="#00FF55"/>
<path d="M48.0675 53.736V89H42.8835V53.736H37.1875V49.192H42.3075C41.2835 47.272 40.5795 45.224 40.5795 42.472C40.5795 35.432 46.9155 31.656 56.1315 31.656C72.1315 31.656 84.8035 39.72 92.0355 49.64H86.3395C78.9155 41.128 68.3555 36.264 57.4115 36.264C50.2435 36.264 45.7635 38.632 45.7635 43.432C45.7635 45.928 46.5955 47.72 47.6835 49.192H54.6595V53.736H48.0675ZM62.006 77.928C58.166 77.928 55.542 76.008 55.542 73.064C55.542 70.632 57.27 69.224 59.766 69.224C61.878 69.224 63.478 70.12 65.334 72.168C70.454 70.504 73.91 66.408 73.91 60.136C73.91 55.336 71.734 52.776 67.894 52.776C64.95 52.776 63.286 54.44 63.286 56.68C63.286 59.688 65.974 60.968 70.39 61.288L69.622 65.448C62.902 64.936 58.55 61.992 58.55 56.424C58.55 51.624 61.878 48.552 67.766 48.552C74.614 48.552 78.966 53.032 78.966 60.52C78.966 68.136 74.742 73.448 68.534 76.072C71.926 79.336 74.934 82.984 77.558 86.568L73.142 89.384C69.494 84.264 66.55 80.552 64.054 77.736C63.35 77.864 62.774 77.928 62.006 77.928ZM91.574 53.736V89H86.39V53.736H80.694V49.192H98.166V53.736H91.574ZM133.73 53.736H127.138V89H122.018V78.888C119.586 80.68 116.386 81.64 112.674 81.64C105.634 81.64 100.194 77.608 100.194 70.504C100.194 62.888 105.698 59.304 113.442 59.304C115.81 59.304 117.922 59.56 119.714 60.008L119.394 64.616C117.602 64.232 115.81 63.976 113.634 63.976C108.834 63.976 105.378 66.28 105.378 70.632C105.378 74.472 107.874 77.032 112.674 77.032C116.45 77.032 119.778 75.304 122.018 72.616V53.736H97.25V49.192H133.73V53.736ZM143.693 53.736V89H138.509V53.736H132.812V49.192H150.285V53.736H143.693ZM137.535 39.592C137.535 37.544 139.135 35.88 141.055 35.88C142.975 35.88 144.575 37.544 144.575 39.592C144.575 41.64 142.975 43.304 141.055 43.304C139.135 43.304 137.535 41.64 137.535 39.592ZM157.631 77.928C153.791 77.928 151.167 76.008 151.167 73.064C151.167 70.632 152.895 69.224 155.391 69.224C157.503 69.224 159.103 70.12 160.959 72.168C166.079 70.504 169.535 66.408 169.535 60.136C169.535 55.336 167.359 52.776 163.519 52.776C160.575 52.776 158.911 54.44 158.911 56.68C158.911 59.688 161.599 60.968 166.015 61.288L165.247 65.448C158.527 64.936 154.175 61.992 154.175 56.424C154.175 51.624 157.503 48.552 163.391 48.552C170.239 48.552 174.591 53.032 174.591 60.52C174.591 68.136 170.367 73.448 164.159 76.072C167.551 79.336 170.559 82.984 173.183 86.568L168.767 89.384C165.119 84.264 162.175 80.552 159.679 77.736C158.975 77.864 158.399 77.928 157.631 77.928ZM187.199 53.736V89H182.015V53.736H176.319V49.192H193.791V53.736H187.199ZM252.141 49.192V53.736H245.549V89H240.365V77.928C238.125 79.464 235.373 80.552 231.405 80.552C223.149 80.552 218.477 75.816 216.237 66.088C222.829 64.872 225.517 63.08 225.517 59.624C225.517 57.384 224.429 55.336 222.701 53.736H214.125V49.192H252.141ZM222.637 69.352C224.173 73.768 226.605 76.008 231.341 76.008C235.309 76.008 238.189 73.96 240.365 71.592V53.736H228.269C229.869 55.784 230.637 58.024 230.637 60.2C230.637 64.744 228.141 67.56 222.637 69.352ZM262.13 53.736V89H256.946V53.736H251.25V49.192H268.722V53.736H262.13ZM294.309 93.096C292.645 89.96 291.365 86.568 290.533 83.816C289.381 84.072 288.165 84.2 286.565 84.2C279.013 84.2 271.205 80.552 271.205 71.4C271.205 63.656 276.645 59.88 286.949 59.88H290.469V53.736H267.812V49.192H302.437V53.736H295.653V64.36H287.717C280.229 64.36 276.389 66.664 276.389 71.656C276.389 76.712 280.357 79.528 286.501 79.528C287.269 79.528 288.101 79.464 288.997 79.336C288.677 78.376 288.549 77.416 288.549 76.52C288.549 74.024 290.149 72.488 292.901 72.488C296.037 72.488 298.341 74.92 298.341 77.544C298.341 79.656 297.061 81.384 294.821 82.536C295.909 85.224 297.189 87.656 299.173 90.92L294.309 93.096ZM338.293 53.736H331.701V89H326.581V78.888C324.149 80.68 320.949 81.64 317.237 81.64C310.197 81.64 304.757 77.608 304.757 70.504C304.757 62.888 310.26 59.304 318.005 59.304C320.373 59.304 322.485 59.56 324.277 60.008L323.957 64.616C322.165 64.232 320.373 63.976 318.197 63.976C313.397 63.976 309.941 66.28 309.941 70.632C309.941 74.472 312.437 77.032 317.237 77.032C321.013 77.032 324.341 75.304 326.581 72.616V53.736H301.812V49.192H338.293V53.736Z" fill="white"/>
<path d="M420.688 56.2812L427.344 47.125L416.594 43.5938L418.781 36.8125L429.562 40.3438L429.5 29H436.719L436.656 40.3438L447.469 36.8438L449.688 43.625L438.938 47.125L445.5 56.2812L439.75 60.4688L433.125 51.2812L426.438 60.4375L420.688 56.2812Z" fill="#CC00FF"/>
<g style="mix-blend-mode:color">
<path d="M149.162 31.8441C152.294 34.6995 156.832 36.6582 161.131 38C156.832 39.3418 152.294 41.3005 149.162 44.1559C145.756 47.2616 143.493 51.8884 142 56.1162C140.507 51.8884 138.244 47.2616 134.838 44.1559C131.706 41.3005 127.168 39.3418 122.869 38C127.168 36.6582 131.706 34.6995 134.838 31.8441C138.244 28.7384 140.507 24.1116 142 19.8838C143.493 24.1116 145.756 28.7384 149.162 31.8441Z" stroke="#8C01BD" stroke-width="6"/>
</g>
</svg>
