<svg width="121" height="79" viewBox="0 0 121 79" fill="none" xmlns="http://www.w3.org/2000/svg">
<path d="M40.3333 23.2611C40.3333 28.8361 35.8189 33.3556 30.25 33.3556C24.6811 33.3556 20.1667 28.8361 20.1667 23.2611C20.1667 17.6861 24.6811 13.1667 30.25 13.1667C35.8189 13.1667 40.3333 17.6861 40.3333 23.2611Z" fill="#C40003"/>
<path d="M40.3333 23.2611C40.3333 28.8361 35.8189 33.3556 30.25 33.3556C24.6811 33.3556 20.1667 28.8361 20.1667 23.2611C20.1667 17.6861 24.6811 13.1667 30.25 13.1667C35.8189 13.1667 40.3333 17.6861 40.3333 23.2611Z" stroke="#4920FF"/>
<ellipse cx="30.25" cy="63.6389" rx="10.0833" ry="10.9722" fill="#6B00A9"/>
<path d="M8.81818 62.3636C7.69697 62.3636 6.73485 61.9621 5.93182 61.1591C5.12879 60.3561 4.72727 59.3939 4.72727 58.2727C4.72727 57.1515 5.12879 56.1894 5.93182 55.3864C6.73485 54.5833 7.69697 54.1818 8.81818 54.1818C9.93939 54.1818 10.9015 54.5833 11.7045 55.3864C12.5076 56.1894 12.9091 57.1515 12.9091 58.2727C12.9091 59.0152 12.7197 59.697 12.3409 60.3182C11.9773 60.9394 11.4848 61.4394 10.8636 61.8182C10.2576 62.1818 9.57576 62.3636 8.81818 62.3636ZM8.81818 36.4545C7.69697 36.4545 6.73485 36.053 5.93182 35.25C5.12879 34.447 4.72727 33.4848 4.72727 32.3636C4.72727 31.2424 5.12879 30.2803 5.93182 29.4773C6.73485 28.6742 7.69697 28.2727 8.81818 28.2727C9.93939 28.2727 10.9015 28.6742 11.7045 29.4773C12.5076 30.2803 12.9091 31.2424 12.9091 32.3636C12.9091 33.1061 12.7197 33.7879 12.3409 34.4091C11.9773 35.0303 11.4848 35.5303 10.8636 35.9091C10.2576 36.2727 9.57576 36.4545 8.81818 36.4545ZM22.5341 62V27.0909H27.7159V32.3636H28.0795C28.7159 30.6364 29.8674 29.2348 31.5341 28.1591C33.2008 27.0833 35.0795 26.5455 37.1705 26.5455C37.5644 26.5455 38.0568 26.553 38.6477 26.5682C39.2386 26.5833 39.6856 26.6061 39.9886 26.6364V32.0909C39.8068 32.0455 39.3902 31.9773 38.7386 31.8864C38.1023 31.7803 37.428 31.7273 36.7159 31.7273C35.0189 31.7273 33.5038 32.0833 32.1705 32.7955C30.8523 33.4924 29.8068 34.4621 29.0341 35.7045C28.2765 36.9318 27.8977 38.3333 27.8977 39.9091V62H22.5341ZM59.9205 62.7273C56.5568 62.7273 53.6553 61.9848 51.2159 60.5C48.7917 59 46.9205 56.9091 45.6023 54.2273C44.2992 51.5303 43.6477 48.3939 43.6477 44.8182C43.6477 41.2424 44.2992 38.0909 45.6023 35.3636C46.9205 32.6212 48.7538 30.4848 51.1023 28.9545C53.4659 27.4091 56.2235 26.6364 59.375 26.6364C61.1932 26.6364 62.9886 26.9394 64.7614 27.5455C66.5341 28.1515 68.1477 29.1364 69.6023 30.5C71.0568 31.8485 72.2159 33.6364 73.0795 35.8636C73.9432 38.0909 74.375 40.8333 74.375 44.0909V46.3636H47.4659V41.7273H68.9205C68.9205 39.7576 68.5265 38 67.7386 36.4545C66.9659 34.9091 65.8598 33.6894 64.4205 32.7955C62.9962 31.9015 61.3144 31.4545 59.375 31.4545C57.2386 31.4545 55.3902 31.9848 53.8295 33.0455C52.2841 34.0909 51.0947 35.4545 50.2614 37.1364C49.428 38.8182 49.0114 40.6212 49.0114 42.5455V45.6364C49.0114 48.2727 49.4659 50.5076 50.375 52.3409C51.2992 54.1591 52.5795 55.5455 54.2159 56.5C55.8523 57.4394 57.7538 57.9091 59.9205 57.9091C61.3295 57.9091 62.6023 57.7121 63.7386 57.3182C64.8902 56.9091 65.8826 56.303 66.7159 55.5C67.5492 54.6818 68.1932 53.6667 68.6477 52.4545L73.8295 53.9091C73.2841 55.6667 72.3674 57.2121 71.0795 58.5455C69.7917 59.8636 68.2008 60.8939 66.3068 61.6364C64.4129 62.3636 62.2841 62.7273 59.9205 62.7273Z" fill="#020202"/>
</svg>
