<svg width="75" height="77" viewBox="0 0 75 77" fill="none" xmlns="http://www.w3.org/2000/svg">
<path d="M19.9091 62V27.0909H25.0909V32.3636H25.4545C26.0909 30.6364 27.2424 29.2348 28.9091 28.1591C30.5758 27.0833 32.4545 26.5455 34.5455 26.5455C34.9394 26.5455 35.4318 26.553 36.0227 26.5682C36.6136 26.5833 37.0606 26.6061 37.3636 26.6364V32.0909C37.1818 32.0455 36.7652 31.9773 36.1136 31.8864C35.4773 31.7803 34.803 31.7273 34.0909 31.7273C32.3939 31.7273 30.8788 32.0833 29.5455 32.7955C28.2273 33.4924 27.1818 34.4621 26.4091 35.7045C25.6515 36.9318 25.2727 38.3333 25.2727 39.9091V62H19.9091ZM57.2955 62.7273C53.9318 62.7273 51.0303 61.9848 48.5909 60.5C46.1667 59 44.2955 56.9091 42.9773 54.2273C41.6742 51.5303 41.0227 48.3939 41.0227 44.8182C41.0227 41.2424 41.6742 38.0909 42.9773 35.3636C44.2955 32.6212 46.1288 30.4848 48.4773 28.9545C50.8409 27.4091 53.5985 26.6364 56.75 26.6364C58.5682 26.6364 60.3636 26.9394 62.1364 27.5455C63.9091 28.1515 65.5227 29.1364 66.9773 30.5C68.4318 31.8485 69.5909 33.6364 70.4545 35.8636C71.3182 38.0909 71.75 40.8333 71.75 44.0909V46.3636H44.8409V41.7273H66.2955C66.2955 39.7576 65.9015 38 65.1136 36.4545C64.3409 34.9091 63.2348 33.6894 61.7955 32.7955C60.3712 31.9015 58.6894 31.4545 56.75 31.4545C54.6136 31.4545 52.7652 31.9848 51.2045 33.0455C49.6591 34.0909 48.4697 35.4545 47.6364 37.1364C46.803 38.8182 46.3864 40.6212 46.3864 42.5455V45.6364C46.3864 48.2727 46.8409 50.5076 47.75 52.3409C48.6742 54.1591 49.9545 55.5455 51.5909 56.5C53.2273 57.4394 55.1288 57.9091 57.2955 57.9091C58.7045 57.9091 59.9773 57.7121 61.1136 57.3182C62.2652 56.9091 63.2576 56.303 64.0909 55.5C64.9242 54.6818 65.5682 53.6667 66.0227 52.4545L71.2045 53.9091C70.6591 55.6667 69.7424 57.2121 68.4545 58.5455C67.1667 59.8636 65.5758 60.8939 63.6818 61.6364C61.7879 62.3636 59.6591 62.7273 57.2955 62.7273Z" fill="white"/>
<ellipse cx="9.5" cy="34" rx="7.5" ry="7" fill="#FF0004"/>
<ellipse cx="7.5" cy="55" rx="7.5" ry="7" fill="#410086"/>
</svg>
