<svg width="254" height="116" viewBox="0 0 254 116" fill="none" xmlns="http://www.w3.org/2000/svg">
<path d="M17.9091 62V27.0909H23.0909V32.3636H23.4545C24.0909 30.6364 25.2424 29.2348 26.9091 28.1591C28.5758 27.0833 30.4545 26.5455 32.5455 26.5455C32.9394 26.5455 33.4318 26.553 34.0227 26.5682C34.6136 26.5833 35.0606 26.6061 35.3636 26.6364V32.0909C35.1818 32.0455 34.7652 31.9773 34.1136 31.8864C33.4773 31.7803 32.803 31.7273 32.0909 31.7273C30.3939 31.7273 28.8788 32.0833 27.5455 32.7955C26.2273 33.4924 25.1818 34.4621 24.4091 35.7045C23.6515 36.9318 23.2727 38.3333 23.2727 39.9091V62H17.9091ZM55.2955 62.7273C51.9318 62.7273 49.0303 61.9848 46.5909 60.5C44.1667 59 42.2955 56.9091 40.9773 54.2273C39.6742 51.5303 39.0227 48.3939 39.0227 44.8182C39.0227 41.2424 39.6742 38.0909 40.9773 35.3636C42.2955 32.6212 44.1288 30.4848 46.4773 28.9545C48.8409 27.4091 51.5985 26.6364 54.75 26.6364C56.5682 26.6364 58.3636 26.9394 60.1364 27.5455C61.9091 28.1515 63.5227 29.1364 64.9773 30.5C66.4318 31.8485 67.5909 33.6364 68.4545 35.8636C69.3182 38.0909 69.75 40.8333 69.75 44.0909V46.3636H42.8409V41.7273H64.2955C64.2955 39.7576 63.9015 38 63.1136 36.4545C62.3409 34.9091 61.2348 33.6894 59.7955 32.7955C58.3712 31.9015 56.6894 31.4545 54.75 31.4545C52.6136 31.4545 50.7652 31.9848 49.2045 33.0455C47.6591 34.0909 46.4697 35.4545 45.6364 37.1364C44.803 38.8182 44.3864 40.6212 44.3864 42.5455V45.6364C44.3864 48.2727 44.8409 50.5076 45.75 52.3409C46.6742 54.1591 47.9545 55.5455 49.5909 56.5C51.2273 57.4394 53.1288 57.9091 55.2955 57.9091C56.7045 57.9091 57.9773 57.7121 59.1136 57.3182C60.2652 56.9091 61.2576 56.303 62.0909 55.5C62.9242 54.6818 63.5682 53.6667 64.0227 52.4545L69.2045 53.9091C68.6591 55.6667 67.7424 57.2121 66.4545 58.5455C65.1667 59.8636 63.5758 60.8939 61.6818 61.6364C59.7879 62.3636 57.6591 62.7273 55.2955 62.7273Z" fill="black"/>
<ellipse cx="8.5" cy="34" rx="7.5" ry="7" fill="#FF0000"/>
<ellipse cx="7.5" cy="56" rx="7.5" ry="7" fill="#0051FF"/>
</svg>
