<svg width="66" height="73" viewBox="0 0 66 73" fill="none" xmlns="http://www.w3.org/2000/svg">
<g style="mix-blend-mode:darken">
<path d="M39.8416 30.6622C42.937 33.617 47.4444 35.6306 51.6833 37C47.4444 38.3694 42.937 40.383 39.8416 43.3378C36.6114 46.4212 34.4456 50.9742 33 55.1795C31.5544 50.9742 29.3886 46.4212 26.1584 43.3378C23.063 40.383 18.5556 38.3694 14.3167 37C18.5556 35.6306 23.063 33.617 26.1584 30.6622C29.3886 27.5788 31.5544 23.0258 33 18.8205C34.4456 23.0258 36.6114 27.5788 39.8416 30.6622Z" fill="black"/>
<path d="M39.8416 30.6622C42.937 33.617 47.4444 35.6306 51.6833 37C47.4444 38.3694 42.937 40.383 39.8416 43.3378C36.6114 46.4212 34.4456 50.9742 33 55.1795C31.5544 50.9742 29.3886 46.4212 26.1584 43.3378C23.063 40.383 18.5556 38.3694 14.3167 37C18.5556 35.6306 23.063 33.617 26.1584 30.6622C29.3886 27.5788 31.5544 23.0258 33 18.8205C34.4456 23.0258 36.6114 27.5788 39.8416 30.6622Z" stroke="black" stroke-width="6"/>
</g>
<path d="M27.952 45.472C26.4587 45.472 25.328 45.1947 24.56 44.64C23.792 44.0853 23.408 43.3387 23.408 42.4C23.408 41.7173 23.6427 41.12 24.112 40.608C24.5387 40.0533 25.0507 39.6267 25.648 39.328C26.2453 38.9867 26.7147 38.816 27.056 38.816C27.5253 38.816 27.8453 38.9227 28.016 39.136C28.144 39.3067 28.208 39.4987 28.208 39.712C28.208 40.0533 28.016 40.3307 27.632 40.544C27.2053 40.7573 26.864 40.864 26.608 40.864C26.3093 40.864 26.0533 40.7787 25.84 40.608C25.584 40.3947 25.456 40.288 25.456 40.288C25.2427 40.3307 24.944 40.5653 24.56 40.992C24.176 41.4187 23.984 41.888 23.984 42.4C23.984 42.912 24.2613 43.4027 24.816 43.872C25.3707 44.3413 26.2667 44.576 27.504 44.576C28.784 44.576 30 44.1493 31.152 43.296C32.3467 42.4427 33.328 41.3547 34.096 40.032C34.864 38.7093 35.248 37.3653 35.248 36C35.248 35.5307 35.248 34.912 35.248 34.144C35.248 33.3333 35.248 32.672 35.248 32.16C35.248 31.52 35.3547 30.7947 35.568 29.984C35.7813 29.1307 36.016 28.3413 36.272 27.616C36.5707 26.8907 36.8053 26.4427 36.976 26.272C37.3173 25.9733 37.5733 25.888 37.744 26.016C37.9147 26.144 37.9573 26.272 37.872 26.4C37.8293 26.4427 37.552 26.784 37.04 27.424C36.528 28.0213 35.888 28.768 35.12 29.664C34.352 30.56 33.584 31.456 32.816 32.352C32.048 33.248 31.3653 34.0373 30.768 34.72C30.2133 35.4027 29.8933 35.808 29.808 35.936C29.5947 36.2347 29.4027 36.2987 29.232 36.128C29.0613 35.9573 29.104 35.744 29.36 35.488C29.8293 34.8907 30.4053 34.1867 31.088 33.376C31.8133 32.5227 32.5387 31.6907 33.264 30.88C33.9893 30.0693 34.608 29.3867 35.12 28.832C35.6747 28.2347 35.9733 27.8933 36.016 27.808C36.144 27.6373 36.2507 27.3387 36.336 26.912C36.464 26.4853 36.6133 26.08 36.784 25.696C36.9973 25.312 37.2533 25.12 37.552 25.12C38.2773 25.12 38.64 25.376 38.64 25.888C38.64 26.272 38.3413 26.7413 37.744 27.296C37.1893 27.8507 36.8693 28.2987 36.784 28.64C36.656 29.152 36.656 29.8773 36.784 30.816C36.9547 31.712 37.1253 32.736 37.296 33.888C37.5093 35.04 37.616 36.256 37.616 37.536C37.616 39.2427 37.2747 40.6293 36.592 41.696C35.9093 42.72 35.056 43.5093 34.032 44.064C33.008 44.6187 31.9413 44.9813 30.832 45.152C29.7653 45.3653 28.8053 45.472 27.952 45.472ZM37.808 41.056C36.6987 41.056 35.9733 40.8427 35.632 40.416C35.3333 39.9893 35.2267 39.4987 35.312 38.944C35.44 38.3467 35.5893 37.8133 35.76 37.344L36.4 37.408C36.272 37.8347 36.144 38.2827 36.016 38.752C35.9307 39.2213 35.9947 39.6267 36.208 39.968C36.4213 40.3093 36.976 40.48 37.872 40.48C38.512 40.48 39.2373 40.1813 40.048 39.584C40.8587 38.9867 41.648 38.2613 42.416 37.408C43.2267 36.5547 43.9093 35.7227 44.464 34.912L45.04 35.36C44.4853 36.0427 43.8027 36.832 42.992 37.728C42.224 38.624 41.392 39.4133 40.496 40.096C39.6 40.736 38.704 41.056 37.808 41.056Z" fill="white"/>
<path d="M17.384 60.232C16.4453 60.232 15.5067 60.104 14.568 59.848C13.5867 59.592 12.776 59.144 12.136 58.504C11.496 57.864 11.176 56.968 11.176 55.816C11.176 55.048 11.432 54.472 11.944 54.088C12.4133 53.7467 12.8187 53.576 13.16 53.576C13.6293 53.576 13.992 53.6827 14.248 53.896C14.4613 54.152 14.568 54.408 14.568 54.664C14.568 55.0053 14.4613 55.304 14.248 55.56C13.992 55.8587 13.6507 56.008 13.224 56.008C12.8827 56.008 12.6267 55.9867 12.456 55.944C12.2427 55.9013 12.136 55.88 12.136 55.88C12.0933 56.0507 12.1573 56.4347 12.328 57.032C12.4987 57.6293 12.968 58.184 13.736 58.696C14.504 59.2507 15.7413 59.528 17.448 59.528C19.5813 59.528 21.6507 58.9093 23.656 57.672C25.704 56.4347 27.6453 54.8347 29.48 52.872C31.3573 50.9093 33.128 48.776 34.792 46.472C36.456 44.168 37.992 41.928 39.4 39.752C40.8507 37.5333 42.152 35.6133 43.304 33.992C44.4987 32.328 45.5227 31.1973 46.376 30.6C46.8453 30.2587 47.1653 30.1307 47.336 30.216C47.5493 30.2587 47.3573 30.536 46.76 31.048C46.5467 31.2613 45.9707 31.88 45.032 32.904C44.0933 33.8853 42.9413 35.0587 41.576 36.424C40.2107 37.7893 38.7387 39.1333 37.16 40.456C35.624 41.7787 34.1093 42.888 32.616 43.784C31.1227 44.68 29.8 45.128 28.648 45.128C27.624 45.128 26.92 44.872 26.536 44.36C26.152 43.8053 25.96 43.1227 25.96 42.312C25.96 40.904 26.408 39.4107 27.304 37.832C28.2427 36.2533 29.3947 34.696 30.76 33.16C32.1253 31.5813 33.4693 30.1093 34.792 28.744C36.1573 27.336 37.288 26.0987 38.184 25.032C39.1227 23.9653 39.592 23.1547 39.592 22.6C39.592 21.8747 39.1867 21.256 38.376 20.744C37.608 20.1893 36.328 19.912 34.536 19.912C32.488 19.912 30.4613 20.36 28.456 21.256C26.4507 22.152 24.616 23.2827 22.952 24.648C21.3307 26.0133 20.0293 27.4213 19.048 28.872C18.0667 30.28 17.576 31.5173 17.576 32.584C17.576 33.1813 17.7467 33.672 18.088 34.056C18.4293 34.44 19.0267 34.632 19.88 34.632C20.8613 34.632 21.928 34.2907 23.08 33.608C24.2747 32.8827 25.4267 31.9867 26.536 30.92C27.688 29.8533 28.7333 28.744 29.672 27.592C30.6107 26.44 31.3787 25.416 31.976 24.52C32.5733 23.624 32.9147 23.0053 33 22.664C33.0853 22.28 33.1707 22.1093 33.256 22.152C33.384 22.1947 33.4693 22.3867 33.512 22.728C33.6827 23.5387 33.4907 24.4987 32.936 25.608C32.3813 26.7173 31.592 27.8693 30.568 29.064C29.544 30.216 28.392 31.304 27.112 32.328C25.8747 33.3093 24.616 34.12 23.336 34.76C22.0987 35.3573 20.968 35.656 19.944 35.656C18.664 35.656 17.8107 35.3787 17.384 34.824C17 34.2693 16.808 33.608 16.808 32.84C16.808 31.6453 17.2987 30.28 18.28 28.744C19.2613 27.208 20.584 25.7147 22.248 24.264C23.9547 22.8133 25.8747 21.6187 28.008 20.68C30.184 19.7413 32.424 19.272 34.728 19.272C36.9467 19.272 38.5253 19.6347 39.464 20.36C40.4027 21.0427 40.872 21.8747 40.872 22.856C40.872 24.392 40.4027 25.9067 39.464 27.4C38.5253 28.8507 37.3733 30.28 36.008 31.688C34.6427 33.096 33.256 34.4613 31.848 35.784C30.4827 37.1067 29.3307 38.3653 28.392 39.56C27.4533 40.712 26.984 41.8 26.984 42.824C26.984 43.2507 27.112 43.656 27.368 44.04C27.624 44.3813 28.008 44.552 28.52 44.552C29.3733 44.552 30.44 44.1893 31.72 43.464C33 42.7387 34.344 41.8 35.752 40.648C37.2027 39.496 38.6107 38.28 39.976 37C41.3413 35.6773 42.536 34.4187 43.56 33.224C45.096 31.432 46.568 29.8107 47.976 28.36C49.4267 26.8667 50.7707 25.6507 52.008 24.712C53.288 23.7733 54.4613 23.176 55.528 22.92C55.9547 22.8347 56.1893 22.8773 56.232 23.048C56.2747 23.2187 56.1467 23.368 55.848 23.496C53.3733 24.6053 51.2827 26.2053 49.576 28.296C47.8693 30.3867 46.2693 32.7333 44.776 35.336C43.3253 37.9387 41.7467 40.584 40.04 43.272C38.7173 45.32 37.2453 47.368 35.624 49.416C34.0027 51.4213 32.232 53.2347 30.312 54.856C28.4347 56.4773 26.408 57.7787 24.232 58.76C22.056 59.7413 19.7733 60.232 17.384 60.232Z" fill="#FF81C6"/>
</svg>
